<svg width="87" height="120" viewBox="0 0 87 120" fill="none" xmlns="http://www.w3.org/2000/svg">
<path d="M28.7814 44.5C7.98139 43.3 1.11472 31 0.281388 25C-1.05195 34.8333 1.68139 54.7 23.2814 55.5H54.2812H56.2812C58.4479 55.5 62.6813 56.6 62.2812 61C61.8812 65.4 58.2812 66.5 56.2812 66.5H5.28125C4.78125 66.5 3.78125 66.7 3.78125 67.5V78C3.78125 78.3333 4.08125 79 5.28125 79H56.2812C58.2812 79 62.2812 80 62.2812 84C62.2812 88 60.7812 89.5 56.2812 89.5L22.2812 90C14.6146 89.6667 -0.51875 95.2 0.28125 120C1.44792 113.833 8.78125 101.4 28.7812 101H57.2812C66.2812 100.5 82.9815 93.4 73.7814 75C73.5263 74.3333 73.1691 72.6 73.7814 71C82.1814 50.6 66.9481 44.8333 58.2814 44.5H28.7814Z" fill="#FBF9FB"/>
<path d="M71.0107 12C77.0107 11.6 82.1774 4.16667 84.0107 0.5C84.2175 0.1 82.7636 0 82.0107 0L25.0107 0.5C20.1774 1 10.4107 5 10.0107 17C9.61071 29 20.5107 33 26.0107 33.5L54.0107 34C76.0107 33.6 85.5 46.5 86.5107 53.5C86.5107 30.5 73 23 64.0107 23C53.844 23.1667 32.8107 23.4 30.0107 23C26.5107 22.5 25.0107 21.5 25.0107 17C25.0107 13.4 28 11.97 30.0107 12C41.1774 12.1667 65.0107 12.4 71.0107 12Z" fill="#FBF9FB"/>
</svg>
